<?xml version="1.0" standalone="no"?><!DOCTYPE svg PUBLIC "-//W3C//DTD SVG 1.1//EN" "http://www.w3.org/Graphics/SVG/1.1/DTD/svg11.dtd"><svg xmlns:xlink="http://www.w3.org/1999/xlink" version="1.1" class="highcharts-root" style="font-family: Roboto; font-size: 12px;" xmlns="http://www.w3.org/2000/svg" width="750" height="400" viewBox="0 0 750 400" aria-label="Interactive chart" aria-hidden="false"><desc aria-hidden="true">Created with Highcharts 10.3.1</desc><defs aria-hidden="true"><clipPath id="highcharts-gisxatz-618-"><rect x="0" y="0" width="696" height="353" fill="none"></rect></clipPath><clipPath id="highcharts-gisxatz-625-"><rect x="0" y="0" width="696" height="353" fill="none"></rect></clipPath></defs><rect fill="#ffffff" class="highcharts-background" x="0" y="0" width="750" height="400" rx="0" ry="0" aria-hidden="true"></rect><rect fill="none" class="highcharts-plot-background" x="44" y="10" width="696" height="353" aria-hidden="true"></rect><g class="highcharts-pane-group" data-z-index="0" aria-hidden="true"></g><g class="highcharts-grid highcharts-xaxis-grid" data-z-index="1" aria-hidden="true"><path fill="none" stroke-dasharray="none" data-z-index="1" class="highcharts-grid-line" d="M 159.5 10 L 159.5 363" opacity="1"></path><path fill="none" stroke-dasharray="none" data-z-index="1" class="highcharts-grid-line" d="M 275.5 10 L 275.5 363" opacity="1"></path><path fill="none" stroke-dasharray="none" data-z-index="1" class="highcharts-grid-line" d="M 391.5 10 L 391.5 363" opacity="1"></path><path fill="none" stroke-dasharray="none" data-z-index="1" class="highcharts-grid-line" d="M 507.5 10 L 507.5 363" opacity="1"></path><path fill="none" stroke-dasharray="none" data-z-index="1" class="highcharts-grid-line" d="M 623.5 10 L 623.5 363" opacity="1"></path><path fill="none" stroke-dasharray="none" data-z-index="1" class="highcharts-grid-line" d="M 739.5 10 L 739.5 363" opacity="1"></path><path fill="none" stroke-dasharray="none" data-z-index="1" class="highcharts-grid-line" d="M 43.5 10 L 43.5 363" opacity="1"></path></g><g class="highcharts-grid highcharts-yaxis-grid" data-z-index="1" aria-hidden="true"><path fill="none" stroke="#e6e6e6" stroke-width="1" stroke-dasharray="none" data-z-index="1" class="highcharts-grid-line" d="M 44 363.5 L 740 363.5" opacity="1"></path><path fill="none" stroke="#e6e6e6" stroke-width="1" stroke-dasharray="none" data-z-index="1" class="highcharts-grid-line" d="M 44 292.5 L 740 292.5" opacity="1"></path><path fill="none" stroke="#e6e6e6" stroke-width="1" stroke-dasharray="none" data-z-index="1" class="highcharts-grid-line" d="M 44 222.5 L 740 222.5" opacity="1"></path><path fill="none" stroke="#e6e6e6" stroke-width="1" stroke-dasharray="none" data-z-index="1" class="highcharts-grid-line" d="M 44 151.5 L 740 151.5" opacity="1"></path><path fill="none" stroke="#e6e6e6" stroke-width="1" stroke-dasharray="none" data-z-index="1" class="highcharts-grid-line" d="M 44 81.5 L 740 81.5" opacity="1"></path><path fill="none" stroke="#e6e6e6" stroke-width="1" stroke-dasharray="none" data-z-index="1" class="highcharts-grid-line" d="M 44 9.5 L 740 9.5" opacity="1"></path></g><rect fill="none" class="highcharts-plot-border" data-z-index="1" x="44" y="10" width="696" height="353" aria-hidden="true"></rect><g class="highcharts-axis highcharts-xaxis" data-z-index="2" aria-hidden="true"><path fill="none" class="highcharts-axis-line" stroke="#ccd6eb" stroke-width="1" data-z-index="7" d="M 44 363.5 L 740 363.5"></path></g><g class="highcharts-axis highcharts-yaxis" data-z-index="2" aria-hidden="true"><path fill="none" class="highcharts-axis-line" data-z-index="7" d="M 44 10 L 44 363"></path></g><g class="highcharts-series-group" data-z-index="3" aria-hidden="false"><g class="highcharts-series highcharts-series-0 highcharts-areaspline-series" data-z-index="0.1" opacity="1" transform="translate(44,10) scale(1 1)" clip-path="url(#highcharts-gisxatz-625-)" aria-hidden="true"><path fill="rgb(178,223,138)" fill-opacity="0.35" d="M 58 279.576 C 58 279.576 127.6 203.328 174 203.328 C 220.4 203.328 243.6 302.168 290 302.168 C 336.4 302.168 359.6 42.360000000000014 406 42.360000000000014 C 452.4 42.360000000000014 475.6 155.88479999999998 522 206.152 C 568.4 256.4192 638 293.696 638 293.696 L 638 353 C 638 353 568.4 353 522 353 C 475.6 353 452.4 353 406 353 C 359.6 353 336.4 353 290 353 C 243.6 353 220.4 353 174 353 C 127.6 353 58 353 58 353 Z" class="highcharts-area" data-z-index="0"></path><path fill="none" d="M 58 279.576 C 58 279.576 127.6 203.328 174 203.328 C 220.4 203.328 243.6 302.168 290 302.168 C 336.4 302.168 359.6 42.360000000000014 406 42.360000000000014 C 452.4 42.360000000000014 475.6 155.88479999999998 522 206.152 C 568.4 256.4192 638 293.696 638 293.696" class="highcharts-graph" data-z-index="1" stroke="#b2df8a" stroke-width="2" stroke-linejoin="round" stroke-linecap="round"></path></g><g class="highcharts-markers highcharts-series-0 highcharts-areaspline-series" data-z-index="0.1" opacity="1" transform="translate(44,10) scale(1 1)" clip-path="none" aria-hidden="false" role="region" tabindex="-1" style="outline: none;" aria-label="Item 2, series 1 of 3 with 6 data points."><path fill="#b2df8a" d="M 58 284 A 4 4 0 1 1 58.00399999933334 283.9999980000002 Z" opacity="0" class="highcharts-point" tabindex="-1" style="outline: none;" role="img" aria-label="Text, 26 units. Item 2."></path><path fill="#b2df8a" d="M 174 207 A 4 4 0 1 1 174.00399999933333 206.99999800000018 Z" opacity="0" class="highcharts-point" tabindex="-1" style="outline: none;" role="img" aria-label="Text, 53 units. Item 2."></path><path fill="#b2df8a" d="M 290 306 A 4 4 0 1 1 290.00399999933336 305.9999980000002 Z" opacity="0" class="highcharts-point" tabindex="-1" style="outline: none;" role="img" aria-label="Text, 18 units. Item 2."></path><path fill="#b2df8a" d="M 406 46 A 4 4 0 1 1 406.00399999933336 45.99999800000017 Z" opacity="0" class="highcharts-point" tabindex="-1" style="outline: none;" role="img" aria-label="Text, 110 units. Item 2."></path><path fill="#b2df8a" d="M 522 210 A 4 4 0 1 1 522.0039999993334 209.99999800000018 Z" opacity="0" class="highcharts-point" tabindex="-1" style="outline: none;" role="img" aria-label="Text, 52 units. Item 2."></path><path fill="#b2df8a" d="M 638 298 A 4 4 0 1 1 638.0039999993334 297.9999980000002 Z" opacity="0" class="highcharts-point" tabindex="-1" style="outline: none;" role="img" aria-label="Text, 21 units. Item 2."></path></g><g class="highcharts-series highcharts-series-1 highcharts-areaspline-series" data-z-index="0.1" opacity="1" transform="translate(44,10) scale(1 1)" clip-path="url(#highcharts-gisxatz-625-)" aria-hidden="true"><path fill="rgb(31,120,180)" fill-opacity="0.35" d="M 58 127.08000000000001 C 58 127.08000000000001 127.6 296.52 174 296.52 C 220.4 296.52 243.6 296.52 290 268.28 C 336.4 240.03999999999996 359.6 124.256 406 124.256 C 452.4 124.256 475.6 231.00319999999996 522 271.104 C 568.4 311.2048 638 324.76 638 324.76 L 638 353 C 638 353 568.4 353 522 353 C 475.6 353 452.4 353 406 353 C 359.6 353 336.4 353 290 353 C 243.6 353 220.4 353 174 353 C 127.6 353 58 353 58 353 Z" class="highcharts-area" data-z-index="0"></path><path fill="none" d="M 58 127.08000000000001 C 58 127.08000000000001 127.6 296.52 174 296.52 C 220.4 296.52 243.6 296.52 290 268.28 C 336.4 240.03999999999996 359.6 124.256 406 124.256 C 452.4 124.256 475.6 231.00319999999996 522 271.104 C 568.4 311.2048 638 324.76 638 324.76" class="highcharts-graph" data-z-index="1" stroke="rgb(31, 120, 180)" stroke-opacity=" 0.8" stroke-width="2" stroke-linejoin="round" stroke-linecap="round"></path></g><g class="highcharts-markers highcharts-series-1 highcharts-areaspline-series" data-z-index="0.1" opacity="1" transform="translate(44,10) scale(1 1)" clip-path="none" aria-hidden="false" role="region" tabindex="-1" style="outline: none;" aria-label="Item 1, series 2 of 3 with 6 data points."><path fill="rgb(31, 120, 180)" fill-opacity=" 0.8" d="M 58 123 L 62 127 L 58 131 L 54 127 Z" opacity="0" class="highcharts-point" tabindex="-1" style="outline: none;" role="img" aria-label="Text, 80 units. Item 1."></path><path fill="rgb(31, 120, 180)" fill-opacity=" 0.8" d="M 174 293 L 178 297 L 174 301 L 170 297 Z" opacity="0" class="highcharts-point" tabindex="-1" style="outline: none;" role="img" aria-label="Text, 20 units. Item 1."></path><path fill="rgb(31, 120, 180)" fill-opacity=" 0.8" d="M 290 264 L 294 268 L 290 272 L 286 268 Z" opacity="0" class="highcharts-point" tabindex="-1" style="outline: none;" role="img" aria-label="Text, 30 units. Item 1."></path><path fill="rgb(31, 120, 180)" fill-opacity=" 0.8" d="M 406 120 L 410 124 L 406 128 L 402 124 Z" opacity="0" class="highcharts-point" tabindex="-1" style="outline: none;" role="img" aria-label="Text, 81 units. Item 1."></path><path fill="rgb(31, 120, 180)" fill-opacity=" 0.8" d="M 522 267 L 526 271 L 522 275 L 518 271 Z" opacity="0" class="highcharts-point" tabindex="-1" style="outline: none;" role="img" aria-label="Text, 29 units. Item 1."></path><path fill="rgb(31, 120, 180)" fill-opacity=" 0.8" d="M 638 321 L 642 325 L 638 329 L 634 325 Z" opacity="0" class="highcharts-point" tabindex="-1" style="outline: none;" role="img" aria-label="Text, 10 units. Item 1."></path></g><g class="highcharts-series highcharts-series-2 highcharts-areaspline-series" data-z-index="0.1" opacity="1" transform="translate(44,10) scale(1 1)" clip-path="url(#highcharts-gisxatz-625-)" aria-hidden="true"><path fill="rgb(166,206,227)" fill-opacity="0.35" d="M 58 279.576 C 58 279.576 127.6 279.576 174 279.576 C 220.4 279.576 243.6 299.34400000000005 290 304.992 C 336.4 310.64 359.6 310.64 406 310.64 C 452.4 310.64 475.6 240.04000000000002 522 240.04000000000002 C 568.4 240.04000000000002 638 268.28 638 268.28 L 638 353 C 638 353 568.4 353 522 353 C 475.6 353 452.4 353 406 353 C 359.6 353 336.4 353 290 353 C 243.6 353 220.4 353 174 353 C 127.6 353 58 353 58 353 Z" class="highcharts-area" data-z-index="0"></path><path fill="none" d="M 58 279.576 C 58 279.576 127.6 279.576 174 279.576 C 220.4 279.576 243.6 299.34400000000005 290 304.992 C 336.4 310.64 359.6 310.64 406 310.64 C 452.4 310.64 475.6 240.04000000000002 522 240.04000000000002 C 568.4 240.04000000000002 638 268.28 638 268.28" class="highcharts-graph" data-z-index="1" stroke="#a6cee3" stroke-width="2" stroke-linejoin="round" stroke-linecap="round"></path></g><g class="highcharts-markers highcharts-series-2 highcharts-areaspline-series" data-z-index="0.1" opacity="1" transform="translate(44,10) scale(1 1)" clip-path="none" aria-hidden="false" role="region" tabindex="-1" style="outline: none;" aria-label="Item 3, series 3 of 3 with 6 data points."><path fill="#a6cee3" d="M 54 276 L 62 276 L 62 284 L 54 284 Z" opacity="0" class="highcharts-point" tabindex="-1" style="outline: none;" role="img" aria-label="Text, 26 units. Item 3."></path><path fill="#a6cee3" d="M 170 276 L 178 276 L 178 284 L 170 284 Z" opacity="0" class="highcharts-point" tabindex="-1" style="outline: none;" role="img" aria-label="Text, 26 units. Item 3."></path><path fill="#a6cee3" d="M 286 301 L 294 301 L 294 309 L 286 309 Z" opacity="0" class="highcharts-point" tabindex="-1" style="outline: none;" role="img" aria-label="Text, 17 units. Item 3."></path><path fill="#a6cee3" d="M 402 307 L 410 307 L 410 315 L 402 315 Z" opacity="0" class="highcharts-point" tabindex="-1" style="outline: none;" role="img" aria-label="Text, 15 units. Item 3."></path><path fill="#a6cee3" d="M 518 236 L 526 236 L 526 244 L 518 244 Z" opacity="0" class="highcharts-point" tabindex="-1" style="outline: none;" role="img" aria-label="Text, 40 units. Item 3."></path><path fill="#a6cee3" d="M 634 264 L 642 264 L 642 272 L 634 272 Z" opacity="0" class="highcharts-point" tabindex="-1" style="outline: none;" role="img" aria-label="Text, 30 units. Item 3."></path></g></g><text x="375" text-anchor="middle" class="highcharts-title" data-z-index="4" style="color: rgb(51, 51, 51); font-size: 18px; fill: rgb(51, 51, 51);" y="24" aria-hidden="true"></text><text x="375" text-anchor="middle" class="highcharts-subtitle" data-z-index="4" style="color: rgb(102, 102, 102); fill: rgb(102, 102, 102);" y="24" aria-hidden="true"></text><text x="10" text-anchor="start" class="highcharts-caption" data-z-index="4" style="color: rgb(102, 102, 102); fill: rgb(102, 102, 102);" y="397" aria-hidden="true"></text><g class="highcharts-legend highcharts-no-tooltip" data-z-index="7" visibility="hidden" aria-hidden="true"><rect fill="none" class="highcharts-legend-box" rx="0" ry="0" x="0" y="0" width="8" height="8"></rect><g data-z-index="1"><g></g></g></g><g class="highcharts-axis-labels highcharts-xaxis-labels" data-z-index="7" aria-hidden="true"><text x="102" style="color: rgb(102, 102, 102); cursor: default; font-size: 11px; fill: rgb(102, 102, 102);" text-anchor="middle" transform="translate(0,0)" y="382" opacity="1">Text</text><text x="218" style="color: rgb(102, 102, 102); cursor: default; font-size: 11px; fill: rgb(102, 102, 102);" text-anchor="middle" transform="translate(0,0)" y="382" opacity="1">Text</text><text x="334" style="color: rgb(102, 102, 102); cursor: default; font-size: 11px; fill: rgb(102, 102, 102);" text-anchor="middle" transform="translate(0,0)" y="382" opacity="1">Text</text><text x="450" style="color: rgb(102, 102, 102); cursor: default; font-size: 11px; fill: rgb(102, 102, 102);" text-anchor="middle" transform="translate(0,0)" y="382" opacity="1">Text</text><text x="566" style="color: rgb(102, 102, 102); cursor: default; font-size: 11px; fill: rgb(102, 102, 102);" text-anchor="middle" transform="translate(0,0)" y="382" opacity="1">Text</text><text x="682" style="color: rgb(102, 102, 102); cursor: default; font-size: 11px; fill: rgb(102, 102, 102);" text-anchor="middle" transform="translate(0,0)" y="382" opacity="1">Text</text></g><g class="highcharts-axis-labels highcharts-yaxis-labels" data-z-index="7" aria-hidden="true"><text x="29" style="color: rgb(102, 102, 102); cursor: default; font-size: 11px; fill: rgb(102, 102, 102);" text-anchor="end" transform="translate(0,0)" y="367" opacity="1">0</text><text x="29" style="color: rgb(102, 102, 102); cursor: default; font-size: 11px; fill: rgb(102, 102, 102);" text-anchor="end" transform="translate(0,0)" y="296" opacity="1">25</text><text x="29" style="color: rgb(102, 102, 102); cursor: default; font-size: 11px; fill: rgb(102, 102, 102);" text-anchor="end" transform="translate(0,0)" y="226" opacity="1">50</text><text x="29" style="color: rgb(102, 102, 102); cursor: default; font-size: 11px; fill: rgb(102, 102, 102);" text-anchor="end" transform="translate(0,0)" y="155" opacity="1">75</text><text x="29" style="color: rgb(102, 102, 102); cursor: default; font-size: 11px; fill: rgb(102, 102, 102);" text-anchor="end" transform="translate(0,0)" y="85" opacity="1">100</text><text x="29" style="color: rgb(102, 102, 102); cursor: default; font-size: 11px; fill: rgb(102, 102, 102);" text-anchor="end" transform="translate(0,0)" y="14" opacity="1">125</text></g></svg>